<svg width="48" height="48" viewBox="0 0 48 48" fill="none" xmlns="http://www.w3.org/2000/svg">
<path fill-rule="evenodd" clip-rule="evenodd" d="M19.9175 8.13762C22.4577 5.95222 26.2142 5.95213 28.7544 8.13762C29.8516 9.08163 31.2221 9.6494 32.6655 9.75773C36.0071 10.0085 38.6638 12.6652 38.9145 16.0068C39.0229 17.4501 39.5907 18.8207 40.5347 19.9179C42.72 22.458 42.72 26.2147 40.5347 28.7548C39.5907 29.852 39.0229 31.2226 38.9145 32.6659C38.6638 36.0075 36.0071 38.6642 32.6655 38.915C31.2221 39.0233 29.8516 39.5911 28.7544 40.5351C26.2142 42.7206 22.4577 42.7205 19.9175 40.5351C18.8203 39.5911 17.4496 39.0234 16.0063 38.915C12.6647 38.6642 10.0081 36.0075 9.75731 32.6659C9.64895 31.2226 9.08119 29.852 8.13719 28.7548C5.95166 26.2146 5.95167 22.4581 8.13719 19.9179C9.08119 18.8207 9.64894 17.4501 9.75731 16.0068C10.0081 12.6652 12.6647 10.0085 16.0063 9.75773C17.4496 9.64934 18.8203 9.08157 19.9175 8.13762ZM33.0903 17.9423C32.3206 17.2496 31.1346 17.3123 30.4419 18.082L22.6499 26.7402L18.0366 22.8964C17.2411 22.2335 16.0579 22.3402 15.395 23.1357C14.7322 23.9311 14.8401 25.1133 15.6352 25.7763L21.2661 30.4687C22.2466 31.2855 23.6974 31.1817 24.5513 30.2333L33.23 20.5907C33.9225 19.821 33.86 18.635 33.0903 17.9423Z" fill="url(#paint0_linear_1_77798)"/>
<defs>
<linearGradient id="paint0_linear_1_77798" x1="15.4983" y1="30.9998" x2="41.9987" y2="9.99929" gradientUnits="userSpaceOnUse">
<stop stop-color="#EEF3FF"/>
<stop offset="1" stop-color="#A6C2FC"/>
</linearGradient>
</defs>
</svg>
